<?xml version="1.0" encoding="utf-8"?>
<!-- Generator: Adobe Illustrator 16.0.3, SVG Export Plug-In . SVG Version: 6.00 Build 0)  -->
<!DOCTYPE svg PUBLIC "-//W3C//DTD SVG 1.1//EN" "http://www.w3.org/Graphics/SVG/1.1/DTD/svg11.dtd">
<svg version="1.1" id="Layer_1" xmlns="http://www.w3.org/2000/svg" xmlns:xlink="http://www.w3.org/1999/xlink" x="0px" y="0px"
	 width="200px" height="40px" viewBox="0 0 200 40" enable-background="new 0 0 200 40" xml:space="preserve">
<g>
	<path fill="#417F24" d="M15.516,19.581v-3.459c0-1.092-0.792-1.992-1.748-1.992h-3.707l5.204,5.688
		C15.349,19.721,15.433,19.675,15.516,19.581z"/>
	<path fill="#417F24" d="M25.093,17.067h-3.914c-0.75,0-1.291,0.665-1.291,1.468v0.476h6.953
		C26.841,17.968,26.051,17.067,25.093,17.067z"/>
	<path fill="#FFFFFF" d="M18.972,20.053h-2.165c-0.167,0-0.292,0.047-0.417,0.096c-0.167,0.096-0.333,0.188-0.458,0.332l0.458,0.523
		l0.916,0.992h1.708h0.042h0.873h6.788h0.084h0.833h4.414c0-1.088-0.791-1.989-1.749-1.989h-2.624h-0.874h-6.954h-0.875V20.053z"/>
	<g>
		<path fill="#417F24" d="M6.272,14.129H2.025c-0.75,0-1.291,0.664-1.291,1.47v5.452h5.205c0.25,0,0.416,0.188,0.416,0.473
			s-0.166,0.473-0.416,0.473H0.735v0.998h5.205c0.25,0,0.416,0.189,0.416,0.471c0,0.287-0.166,0.477-0.416,0.477H0.735v0.994h5.205
			c0.25,0,0.416,0.191,0.416,0.477c0,0.283-0.166,0.473-0.416,0.473H0.817c0.167,0.615,0.666,0.994,1.208,0.994h6.413
			c0.25-0.615,0.582-1.184,0.998-1.658v-2.275v-0.9h4.082L6.272,14.129z"/>
		<path fill="#417F24" d="M32.917,23.896c2.419,0,4.394,2.249,4.434,5.002h2.701c-0.201-3.9-2.459-5.142-3.909-5.552
			c-0.726-0.186-1.209-0.186-1.209-0.186h-2.541h-0.846h-4.675h-0.646h-1.048h-4.191h-1.692h-0.202h-1.007l0.604,0.644
			c0.443,0.459,0.443,1.283,0.041,1.834l-0.203,0.229c-0.08,0.094-0.161,0.141-0.241,0.188c-0.161,0.091-0.322,0.182-0.564,0.182
			c-0.201,0-0.362-0.091-0.564-0.182c-0.081-0.047-0.162-0.094-0.242-0.188l-0.564-0.642l-0.847-0.914l-0.847-0.92l-0.201-0.23
			h-3.991v1.469c0.646-0.459,1.411-0.687,2.258-0.687c2.417,0,4.393,2.246,4.393,5.001h11.368
			C28.483,26.146,30.458,23.896,32.917,23.896z"/>
	</g>
	<path fill="#FFFFFF" d="M7.803,14.536l6.854,7.523l0,0l0.121,0.14l0.726,0.78l0.161,0.182l0.686,0.735l1.169,1.286
		c0.121,0.09,0.282,0.09,0.363,0l0.202-0.23c0.121-0.139,0.081-0.322,0-0.412l-1.209-1.332l-0.564-0.597l-0.323-0.412l-0.524-0.597
		l0,0l-0.524-0.598l-0.161-0.183l-5.765-6.286l-0.886-0.962L-3.362,1.001c-0.041-0.047-0.121-0.092-0.201-0.092
		c-0.081,0-0.162,0.045-0.203,0.092L-4.007,1.23c-0.12,0.138-0.08,0.32,0,0.413L6.917,13.527L7.803,14.536z"/>
	<path fill="#FFFFFF" d="M32.917,24.907c-1.935,0-3.547,1.788-3.547,4.037c0,2.203,1.573,4.037,3.547,4.037
		c1.976,0,3.548-1.79,3.548-4.037C36.424,26.695,34.853,24.907,32.917,24.907z M32.917,30.778c-0.886,0-1.652-0.825-1.652-1.88
		c0-1.011,0.726-1.882,1.652-1.882c0.928,0,1.654,0.826,1.654,1.882C34.529,29.953,33.804,30.778,32.917,30.778z"/>
	<path fill="#FFFFFF" d="M12.723,24.861c-1.936,0-3.548,1.789-3.548,4.037c0,2.249,1.573,4.036,3.548,4.036
		c1.974,0,3.547-1.787,3.547-4.036C16.229,26.695,14.657,24.861,12.723,24.861z M12.723,30.778c-0.887,0-1.654-0.825-1.654-1.88
		c0-1.011,0.726-1.882,1.654-1.882c0.927,0,1.652,0.826,1.652,1.882C14.335,29.953,13.609,30.778,12.723,30.778z"/>
</g>
<g>
	<g>
		<path fill="#FFFFFF" d="M65.316,10.525c0,0-5.315,0.134-7.326,2.832c-2.01,2.697-3.24,2.446-3.24,2.446l1.33,1.694L65.316,10.525z
			"/>
		<path fill="#417F24" d="M71.574,18.494c1.01-3.332,1.445-7.046-1.36-9.388c-2.42-2.02-3.284,0.588-3.663,2.991l-0.734-0.937
			l-9.235,6.973l2.941,3.747l-8.261-1.101c-0.291-0.935-1.049-1.68-2.031-1.938c-0.109-0.054-0.226-0.092-0.349-0.104
			c-0.065-0.005-0.132,0.009-0.195,0.017c-0.012-0.001-0.021-0.006-0.031-0.006v0.007c-0.808,0.119-1.534,1.255-1.685,2.706
			c-0.075,0.722-0.008,1.422,0.19,1.97c0.234,0.647,0.631,1.029,1.117,1.078c0.143,0.015,0.286-0.004,0.426-0.049
			c1.127-0.089,2.082-0.806,2.481-1.818l9.977,1.33l3.649,4.646l9.235-6.973L71.574,18.494z M48.334,23.698
			c-0.141-0.038-0.295-0.24-0.402-0.538c-0.157-0.431-0.21-1.021-0.147-1.619c0.103-0.993,0.472-1.681,0.789-1.92
			c0.009-0.006,0.018-0.008,0.026-0.016L48.334,23.698z M70.996,17.757l-3.743-4.767c0.053-0.494,0.11-0.988,0.192-1.48
			c0.115-0.694,0.291-1.399,0.67-2.004c0.804-1.282,2.363,1.111,2.681,1.667C71.923,13.15,71.652,15.503,70.996,17.757z"/>
		<path fill="#FFFFFF" d="M44.875,30.034c0,0.289,0.238,0.522,0.532,0.522c0.294,0,0.531-0.233,0.531-0.522
			c0-0.287-0.531-0.883-0.531-0.883S44.875,29.747,44.875,30.034z"/>
		<path fill="#FFFFFF" d="M48.325,31.113c0,0.517,0.425,0.935,0.953,0.935c0.525,0,0.954-0.418,0.954-0.935
			s-0.954-1.584-0.954-1.584S48.325,30.597,48.325,31.113z"/>
		<path fill="#FFFFFF" d="M47.558,25.528c0,0-0.899,1.006-0.899,1.494c0,0.484,0.402,0.881,0.899,0.881
			c0.498,0,0.899-0.395,0.899-0.881C48.457,26.533,47.558,25.528,47.558,25.528z"/>
	</g>
</g>
<g display="none">
	<path display="inline" fill="#417F24" d="M86.834,31.583V18.76c0-3.966,3.161-7.193,7.044-7.193h11.576
		c3.885,0,7.046,3.227,7.046,7.193v2.212c0,3.965-3.161,7.192-7.044,7.192H94.042L86.834,31.583z M93.878,13.17
		c-3.018,0-5.474,2.508-5.474,5.589v10.31l5.291-2.509h11.761c3.019,0,5.474-2.508,5.474-5.59v-2.212
		c0-3.082-2.456-5.589-5.476-5.589L93.878,13.17L93.878,13.17z M94.396,18.638c0.825,0,1.493,0.683,1.493,1.525
		s-0.668,1.524-1.493,1.524c-0.825,0-1.494-0.682-1.494-1.524S93.571,18.638,94.396,18.638z M104.937,18.638
		c0.826,0,1.494,0.683,1.494,1.525s-0.668,1.524-1.494,1.524c-0.824,0-1.492-0.682-1.492-1.524S104.112,18.638,104.937,18.638z
		 M99.666,18.638c0.826,0,1.493,0.683,1.493,1.525s-0.667,1.524-1.493,1.524c-0.824,0-1.493-0.682-1.493-1.524
		S98.841,18.638,99.666,18.638z"/>
</g>
<circle display="none" fill="#FFFFFF" cx="94.374" cy="20.131" r="1.581"/>
<circle display="none" fill="#FFFFFF" cx="99.667" cy="20.131" r="1.581"/>
<circle display="none" fill="#FFFFFF" cx="104.944" cy="20.131" r="1.581"/>
<g>
	<path fill="#417F24" d="M100.518,9.172c-6.901,0-12.512,4.879-12.512,10.88c0,2.828,1.286,5.564,3.553,7.591
		c-0.512,1.232-1.199,2.401-2.043,3.467c-0.195,0.25-0.238,0.596-0.109,0.889c0.129,0.295,0.407,0.48,0.712,0.48
		c2.261,0,4.176-0.584,6.348-1.94c1.054,0.176,3.137,0.398,4.051,0.398c6.897,0,12.51-4.883,12.51-10.885
		C113.027,14.051,107.415,9.172,100.518,9.172z M100.518,29.267c-0.905,0-3.26-0.257-4.057-0.421
		c-0.19-0.038-0.391,0.001-0.559,0.107c-1.468,0.95-2.75,1.495-4.12,1.725c0.591-0.948,1.082-1.95,1.465-2.994
		c0.126-0.349,0.023-0.742-0.259-0.969c-2.197-1.765-3.407-4.132-3.407-6.663c0-5.077,4.906-9.211,10.936-9.211
		c6.029,0,10.934,4.134,10.934,9.211C111.451,25.133,106.547,29.267,100.518,29.267z"/>
</g>
<g>
	<path fill="#FFFFFF" d="M101.601,21.281c-0.193,0.195-0.029,0.55-0.029,0.55l1.456,2.432c0,0,0.239,0.32,0.446,0.32
		c0.208,0,0.414-0.171,0.414-0.171l1.151-1.646c0,0,0.115-0.208,0.118-0.389c0.004-0.26-0.386-0.33-0.386-0.33l-2.726-0.876
		C102.046,21.172,101.778,21.102,101.601,21.281z M101.464,20.056c0.139,0.237,0.523,0.167,0.523,0.167l2.72-0.794
		c0,0,0.37-0.151,0.423-0.353c0.053-0.2-0.062-0.443-0.062-0.443l-1.299-1.531c0,0-0.113-0.193-0.347-0.213
		c-0.258-0.022-0.416,0.29-0.416,0.29l-1.536,2.417C101.471,19.597,101.335,19.838,101.464,20.056z M100.178,19.112
		c0.321-0.078,0.371-0.543,0.371-0.543l-0.021-3.872c0,0-0.049-0.477-0.262-0.606c-0.337-0.205-0.438-0.098-0.534-0.083
		l-2.257,0.839c0,0-0.221,0.073-0.336,0.257c-0.165,0.262,0.167,0.644,0.167,0.644l2.347,3.199
		C99.652,18.946,99.883,19.186,100.178,19.112z M99.621,20.68c0.008-0.299-0.359-0.478-0.359-0.478l-2.426-1.226
		c0,0-0.36-0.148-0.534-0.045c-0.134,0.079-0.252,0.221-0.264,0.348l-0.158,1.945c0,0-0.024,0.337,0.063,0.49
		c0.124,0.218,0.531,0.066,0.531,0.066l2.833-0.626C99.417,21.082,99.61,21.074,99.621,20.68z M100.326,21.729
		c-0.244-0.124-0.535,0.134-0.535,0.134l-1.897,2.088c0,0-0.237,0.32-0.177,0.516c0.057,0.184,0.151,0.275,0.284,0.34l1.905,0.602
		c0,0,0.23,0.048,0.406-0.003c0.248-0.072,0.203-0.461,0.203-0.461l0.042-2.827C100.558,22.117,100.548,21.845,100.326,21.729z"/>
</g>
<g>
	<g>
		<path fill="#FFFFFF" d="M187.39,9.872l-6.631,6.631l3.347,3.347l6.631-6.631c0.925-0.924,0.925-2.423,0-3.347
			C189.812,8.947,188.313,8.947,187.39,9.872z"/>
		<path fill="#FFFFFF" d="M170.236,32.812c0.125,0.125,0.289,0.188,0.453,0.188s0.329-0.062,0.453-0.188l4.018-4.017l-0.933-0.933
			l-3.538,3.538L169,29.712l1.312-2.109c0.053,0.065,0.13,0.111,0.224,0.123l0.718,0.083c0.104,0.012,0.207-0.024,0.281-0.098
			l1.271-1.271l-1.092-1.093l-0.072-0.071l-0.072-0.073c-0.285-0.285-0.531-0.601-0.734-0.938l-3.237,5.207
			c-0.157,0.254-0.12,0.581,0.092,0.792L170.236,32.812z"/>
		<path fill="#417F24" d="M171.233,23.623c0.197,0.398,0.461,0.772,0.792,1.105c0.003,0.003,0.006,0.007,0.009,0.009l1.236,1.237
			l2.355,2.354l0.269,0.27c0.15,0.149,0.347,0.224,0.543,0.224s0.393-0.074,0.543-0.224l6.927-6.928
			c0.301-0.301,0.301-0.787,0-1.087l-0.268-0.269l-3.347-3.347l-0.245-0.245c-0.477-0.476-1.037-0.813-1.635-1.015
			c-0.056-0.02-0.006-1.009,0-1.123c0.049-0.811-0.64-1.294-1.153-1.808c-0.355-0.354-0.71-0.709-1.063-1.063
			c-0.157-0.157-0.368-0.236-0.577-0.236c-0.259,0-0.517,0.119-0.677,0.357c-0.22,0.327-0.165,0.767,0.113,1.045l1.722,1.721
			c0.001,0.298,0.003,0.597,0.004,0.895c-0.986,0.064-1.955,0.474-2.709,1.228l-1.944,1.945c-0.101-0.041-0.208-0.062-0.315-0.062
			c-0.21,0-0.42,0.078-0.576,0.234c-0.012,0.013-0.899,0.9-0.899,0.9c-0.315,0.313-0.315,0.839,0,1.153
			c0.022,0.022,0.048,0.045,0.073,0.064c0.02,0.025,0.042,0.051,0.064,0.073l0.339,0.34
			C170.745,22.139,170.886,22.918,171.233,23.623z M178.761,24.922l-1.585,1.586c-0.129,0.129-0.298,0.193-0.466,0.193
			c-0.17,0-0.338-0.064-0.467-0.193c-0.258-0.257-0.258-0.675,0-0.932l1.585-1.586c0.258-0.258,0.675-0.258,0.933,0
			C179.018,24.248,179.018,24.665,178.761,24.922z M174.238,23.571l1.585-1.586c0.258-0.257,0.675-0.257,0.933,0
			c0.257,0.257,0.257,0.675,0,0.933l-1.586,1.585c-0.128,0.128-0.297,0.193-0.466,0.193s-0.337-0.065-0.466-0.193
			C173.98,24.246,173.98,23.828,174.238,23.571z"/>
	</g>
</g>
<g>
	<path fill="#417F24" d="M146.272,6.559h-11.546c-1.104,0-1.997,0.896-1.997,1.999v23.446c0,1.102,0.893,1.996,1.997,1.996h11.546
		c1.104,0,1.997-0.895,1.997-1.996V8.558C148.27,7.455,147.376,6.559,146.272,6.559z M137.65,7.772h5.7
		c0.145,0,0.261,0.215,0.261,0.481c0,0.266-0.116,0.482-0.261,0.482h-5.7c-0.146,0-0.26-0.216-0.26-0.482
		C137.391,7.988,137.505,7.772,137.65,7.772z M140.501,32.027c-0.703,0-1.275-0.572-1.275-1.275c0-0.704,0.572-1.274,1.275-1.274
		c0.701,0,1.272,0.57,1.272,1.274C141.773,31.455,141.202,32.027,140.501,32.027z M146.773,27.658h-12.547V9.932h12.547V27.658z"/>
	<g>
	</g>
	<g>
	</g>
	<g>
	</g>
	<g>
	</g>
	<g>
	</g>
	<g>
	</g>
	<g>
	</g>
	<g>
	</g>
	<g>
	</g>
	<g>
	</g>
	<g>
	</g>
	<g>
	</g>
	<g>
	</g>
	<g>
	</g>
	<g>
	</g>
</g>
<circle fill="#FFFFFF" cx="140.5" cy="30.751" r="1.265"/>
<path fill="#FFFFFF" d="M137.65,8.735h5.7c0,0,0.261-0.025,0.261-0.482s-0.261-0.481-0.261-0.481h-5.7c0,0-0.26,0.078-0.26,0.481
	S137.65,8.735,137.65,8.735z"/>
</svg>
