<?xml version="1.0" encoding="utf-8"?>
<!-- Generator: Adobe Illustrator 16.0.3, SVG Export Plug-In . SVG Version: 6.00 Build 0)  -->
<!DOCTYPE svg PUBLIC "-//W3C//DTD SVG 1.1//EN" "http://www.w3.org/Graphics/SVG/1.1/DTD/svg11.dtd">
<svg version="1.1" id="Layer_1" xmlns="http://www.w3.org/2000/svg" xmlns:xlink="http://www.w3.org/1999/xlink" x="0px" y="0px"
	 width="220.027px" height="50.059px" viewBox="0 0 220.027 50.059" enable-background="new 0 0 220.027 50.059"
	 xml:space="preserve">
<text transform="matrix(1.2868 0 0 1 39.5144 29.1877)" fill="#42803C" font-family="'Harabara'" font-size="31.7901">G</text>
<text transform="matrix(1.2868 0 0 1 65.6414 29.1877)" fill="#42803C" font-family="'Harabara'" font-size="4.4153"> </text>
<text transform="matrix(1.2868 0 0 1 66.9167 29.1877)" fill="#42803C" font-family="'Harabara'" font-size="31.7901">r</text>
<text transform="matrix(1.2868 0 0 1 79.4607 29.1877)" fill="#42803C" font-family="'Harabara'" font-size="4.4153"> </text>
<text transform="matrix(1.2868 0 0 1 80.7371 29.1877)" fill="#42803C" font-family="'Harabara'" font-size="31.7901">e</text>
<text transform="matrix(1.2868 0 0 1 100.7107 29.1877)" fill="#42803C" font-family="'Harabara'" font-size="4.4153"> </text>
<text transform="matrix(1.2868 0 0 1 101.9871 29.1877)" fill="#42803C" font-family="'Harabara'" font-size="31.7901">e</text>
<text transform="matrix(1.2868 0 0 1 121.9626 29.1877)" fill="#42803C" font-family="'Harabara'" font-size="4.4153"> </text>
<text transform="matrix(1.2868 0 0 1 123.239 29.1877)" fill="#42803C" font-family="'Harabara'" font-size="31.7901">n</text>
<text transform="matrix(1.2868 0 0 1 142.6531 29.1877)" fill="#42803C" font-family="'Harabara'" font-size="4.4153"> </text>
<text transform="matrix(1.2868 0 0 1 143.9294 29.1877)" fill="#42803C" font-family="'Harabara'" font-size="31.7901">G</text>
<text transform="matrix(1.2868 0 0 1 170.0564 29.1877)" fill="#42803C" font-family="'Harabara'" font-size="4.4153"> </text>
<text transform="matrix(1.2868 0 0 1 171.3318 29.1877)" fill="#42803C" font-family="'Harabara'" font-size="31.7901">o</text>
<path fill="#90C543" d="M81.344,38.749c0,0-0.871-2.515-4.802-2.515c0,0-5.351,0-5.351,4.231c0,0,0.023,4.229,5.15,4.229
	c0,0,2.463,0.323,4.006-1.717l0.425,1.468h0.646v-4.18H76.74v0.771h3.634c0,0-0.299,2.639-3.759,2.812c0,0-3.384,0.225-4.106-2.29
	c0,0-0.298-2.017,0.481-2.928c0,0,0.812-1.376,2.291-1.526c0,0,1.492-0.266,2.67,0.017c0,0,1.593,0.232,2.124,1.577L81.344,38.749z"
	/>
<g>
	<polygon fill="#FFFFFF" points="82.248,44.44 82.258,44.44 86.547,36.428 	"/>
	<polygon fill="#90C543" points="88.22,36.428 92.468,44.424 91.241,44.424 89.997,42.166 91.241,44.524 92.544,44.524 	"/>
	<polygon fill="#90C543" points="82.258,44.44 82.24,44.473 83.542,44.477 84.87,42.166 83.542,44.455 	"/>
	<path fill="#90C543" d="M92.468,44.424l-4.247-7.996h-1.675l-4.289,8.012l1.285,0.017l1.328-2.29h5.126l1.244,2.258H92.468z
		 M85.267,41.239l2.107-3.783l2.074,3.783H85.267z"/>
</g>
<g>
	<path fill="#90C543" d="M102.009,44.307c-0.266-0.083-0.349-0.764-0.349-0.764v-1.792c0-0.896-1.478-0.994-1.478-0.994l0.199-0.093
		c1.717-0.721,1.469-1.99,1.469-1.99c-0.175-2.016-2.837-2.239-2.837-2.239h-5.524v8.038h1.244v-3.385h4.33l0.439,0.017
		c0.979,0.116,0.879,1.095,0.879,1.095s0.018,1.312,0.018,1.774c0,0.465,0.397,0.498,0.397,0.498s1.26,0,1.343,0
		S102.273,44.39,102.009,44.307z M98.888,40.193h-4.131v-2.911v-0.001h4.131c0,0,1.692,0.299,1.742,1.52
		C100.68,40.018,98.888,40.193,98.888,40.193z"/>
</g>
<g>
	<path fill="#90C543" d="M108.861,36.409h-5.145v8.063l5.209,0.033c0,0,4.247-0.332,4.247-4.081
		C113.174,36.676,108.861,36.409,108.861,36.409z M108.428,43.576c-2.895,0-3.41,0.02-3.483,0.028v0.006c0,0-0.024-0.002,0-0.006
		V37.24h3.483c0,0,3.484,0.166,3.484,3.02C111.913,40.259,112.31,43.576,108.428,43.576z"/>
	<path fill="#FFFFFF" d="M104.945,43.611v-0.006C104.92,43.609,104.945,43.611,104.945,43.611z"/>
</g>
<polygon fill="#90C543" points="122.498,37.273 115.961,37.273 115.961,39.827 122.134,39.827 122.134,40.656 115.961,40.656 
	115.961,43.677 122.929,43.677 122.929,44.507 114.801,44.507 114.801,36.409 122.494,36.409 "/>
<polygon fill="#91C543" points="124.622,44.49 124.622,36.426 126.281,36.426 132.269,43.394 132.269,36.426 133.382,36.426 
	133.382,44.49 131.971,44.49 125.817,37.505 125.817,44.473 "/>
<polygon fill="#91C543" points="135.833,36.409 136.983,36.426 136.983,44.473 135.837,44.473 "/>
<polygon fill="#91C543" points="139.53,44.464 139.53,36.402 141.188,36.402 147.177,43.369 147.177,36.402 148.289,36.402 
	148.289,44.464 146.879,44.464 140.723,37.481 140.723,44.448 "/>
<path fill="#90C543" d="M160.184,38.749c0,0-0.871-2.515-4.803-2.515c0,0-5.351,0-5.351,4.231c0,0,0.023,4.229,5.15,4.229
	c0,0,2.465,0.323,4.008-1.717l0.423,1.468h0.646v-4.18h-4.678v0.771h3.633c0,0-0.298,2.639-3.757,2.812c0,0-3.386,0.225-4.106-2.29
	c0,0-0.299-2.017,0.481-2.928c0,0,0.812-1.376,2.289-1.526c0,0,1.494-0.266,2.671,0.017c0,0,1.593,0.232,2.125,1.577L160.184,38.749
	z"/>
<path fill="#42803C" d="M78.901,12.676c0,0,2.499,0.163,2.678,0.383c0.149,0.188-0.098,0.422-0.098,0.422
	c-2.091,1.095-2.58,3.588-2.58,3.588h-0.125v-4.394"/>
</svg>
