<?xml version="1.0" encoding="utf-8"?>
<!-- Generator: Adobe Illustrator 16.0.3, SVG Export Plug-In . SVG Version: 6.00 Build 0)  -->
<!DOCTYPE svg PUBLIC "-//W3C//DTD SVG 1.1//EN" "http://www.w3.org/Graphics/SVG/1.1/DTD/svg11.dtd">
<svg version="1.1" id="Layer_1" xmlns="http://www.w3.org/2000/svg" xmlns:xlink="http://www.w3.org/1999/xlink" x="0px" y="0px"
	 width="121.741px" height="45.429px" viewBox="7.438 93.5 121.741 45.429" enable-background="new 7.438 93.5 121.741 45.429"
	 xml:space="preserve">
<path fill="#417F24" d="M41.79,118.954v-11.862c0,0,0-6.54,10.71-7.153l4.704-0.068c0,0,0.89,0.095,0.036,0.79
	c-0.854,0.697-2.44,2.405-2.692,4.077c0,0-0.013,0.098-0.181,0.182s-2.031,0.036-2.031,0.036s-3.26-0.155-3.981,2.514
	c0,0-0.168,1.948-0.168,2.644c0,0.697,0,8.825,0,8.825L41.79,118.954z"/>
<g>
	<path fill="#417F24" d="M29.02,109.77h3.944l-0.095,0.193l-3.44,3.629c0,0-0.721,0.961-2.5,1.466
		c-1.78,0.508-3.896,0.409-3.896,0.409c-3.631,0-5.586-1.497-5.586-1.497c-3.8-2.113-3.287-6.968-3.287-6.968
		c0-5.169,2.492-6.74,2.492-6.74c2.244-2.437,7.654-2.155,7.654-2.155c4.594-0.025,6.253,2.597,6.253,2.597
		c1.13,1.152,1.611,1.13,1.611,1.13h7.182c-0.77-3.207-3.815-5.322-3.815-5.322c-3.335-3.048-11.191-2.982-11.191-2.982
		c-7.759-0.387-12.151,3.303-12.151,3.303c-4.52,3.174-4.265,11.031-4.265,11.031c0.129,5.93,5.355,9.682,5.355,9.682l-0.064,0.239
		c-0.48,0.129-1.283,0.754-1.283,0.754s-2.885,2.148-3.846,4.488c-0.963,2.341-0.579,6.062-0.579,6.062
		c1.314,7.598,8.465,9.105,8.465,9.105c2.245,0.962,8.817,0.704,8.817,0.704c11.126-0.576,11.919-9.29,11.919-9.29
		c0.194-1.275,0.048-4.136,0.048-4.136c-0.504-5.701-5.771-7.382-5.771-7.382l-0.108-0.3l4.365-4.368v2.07
		c0,3.751,1.924,3.654,1.924,3.654h1.805v-13.272H25.534C25.534,109.842,29.02,109.77,29.02,109.77z M31.146,127.26
		c0,0,0,3.749-1.828,5.226c0,0-1.476,2.724-7.022,2.724c0,0-4.458,0.371-6.574-2.226c0,0-1.9-1.925-1.876-5.894
		c0,0-0.336-4.095,3.271-6.067c0,0,1.875-1.075,5.291-1.075c0,0,4.697-0.271,6.51,1.939
		C28.917,121.887,31.146,123.716,31.146,127.26z"/>
</g>
<g>
	<path fill="#417F24" d="M80.267,110.36c0,0,1.154-11.604-11.383-11.189c0,0-12.024-0.704-12.024,9.747
		c0,0-0.978,10.26,11.912,10.26c0,0,8.898,0.242,11.158-6.107h-5.146c0,0-0.385-0.048-0.737,0.224c0,0-1.972,2.149-5.082,2.149
		c0,0-5.867,0.449-5.562-5.083H80.267z M68.532,103.419c4.712,0,4.905,3.623,4.905,3.623h-9.972
		C63.465,107.042,63.818,103.419,68.532,103.419z"/>
</g>
<g>
	<path fill="#417F24" d="M105.083,110.601c0,0,1.154-11.604-11.383-11.188c0,0-12.024-0.706-12.024,9.745
		c0,0-0.977,10.263,11.913,10.263c0,0,8.897,0.239,11.159-6.109H99.6c0,0-0.384-0.048-0.737,0.226c0,0-1.971,2.146-5.081,2.146
		c0,0-5.867,0.45-5.562-5.082H105.083z M93.348,103.66c4.713,0,4.906,3.622,4.906,3.622h-9.972
		C88.282,107.282,88.634,103.66,93.348,103.66z"/>
</g>
<path fill="#417F24" d="M106.574,118.962v-12.983c0,0,0.336-6.566,11.206-6.566c0,0,11.398-0.626,11.398,8.225v11.301h-4.473
	c0,0-2.092-0.193-2.092-1.488c0-1.3,0-10.744,0-10.744s0.041-3.333-4.48-3.333c-4.521,0-4.777,2.565-4.777,2.565v12.697
	c0,0,0.113,0.303-0.305,0.303C112.634,118.938,106.574,118.962,106.574,118.962z"/>
<path fill="#8FC642" d="M51.817,125.959c0,0-0.842-2.428-4.641-2.428c0,0-5.169,0-5.169,4.087c0,0,0.023,4.089,4.976,4.089
	c0,0,2.381,0.312,3.873-1.66l0.408,1.419h0.625v-4.04h-4.521v0.746h3.511c0,0-0.29,2.548-3.631,2.717c0,0-3.271,0.218-3.969-2.212
	c0,0-0.288-1.947,0.466-2.829c0,0,0.786-1.331,2.213-1.477c0,0,1.443-0.258,2.581,0.018c0,0,1.539,0.222,2.052,1.521L51.817,125.959
	z"/>
<g>
	<polygon fill="#FFFFFF" points="52.691,131.459 52.7,131.459 56.844,123.716 	"/>
	<polygon fill="#8FC642" points="58.463,123.716 62.567,131.443 61.381,131.443 60.178,129.263 61.381,131.541 62.64,131.541 	"/>
	<polygon fill="#8FC642" points="52.7,131.459 52.684,131.492 53.942,131.494 55.225,129.263 53.942,131.473 	"/>
	<path fill="#8FC642" d="M62.567,131.443l-4.104-7.728h-1.619l-4.144,7.743l1.242,0.014l1.283-2.21h4.954l1.203,2.181H62.567z
		 M55.609,128.365l2.036-3.656l2.005,3.656H55.609z"/>
</g>
<g>
	<path fill="#8FC642" d="M71.786,131.332c-0.257-0.082-0.337-0.738-0.337-0.738v-1.731c0-0.867-1.427-0.962-1.427-0.962l0.192-0.088
		c1.661-0.699,1.419-1.923,1.419-1.923c-0.169-1.949-2.742-2.166-2.742-2.166h-5.338v7.769h1.203v-3.271h4.183l0.425,0.015
		c0.946,0.113,0.85,1.058,0.85,1.058s0.016,1.267,0.016,1.716c0,0.45,0.385,0.483,0.385,0.483s1.218,0,1.298,0
		C71.994,131.492,72.042,131.411,71.786,131.332z M68.771,127.355H64.78v-2.813l0,0h3.991c0,0,1.635,0.286,1.683,1.466
		C70.504,127.186,68.771,127.355,68.771,127.355z"/>
</g>
<g>
	<path fill="#8FC642" d="M78.407,123.699h-4.97v7.793l5.034,0.032c0,0,4.104-0.32,4.104-3.947
		C82.575,123.956,78.407,123.699,78.407,123.699z M77.99,130.624c-2.797,0-3.295,0.02-3.368,0.029v0.004c0,0-0.025-0.002,0-0.004
		v-6.151h3.368c0,0,3.367,0.159,3.367,2.918C81.357,127.42,81.742,130.624,77.99,130.624z"/>
	<path fill="#FFFFFF" d="M74.623,130.657v-0.004C74.598,130.655,74.623,130.657,74.623,130.657z"/>
</g>
<polygon fill="#8FC642" points="91.584,124.533 85.268,124.533 85.268,127.001 91.232,127.001 91.232,127.803 85.268,127.803 
	85.268,130.722 92.001,130.722 92.001,131.524 84.145,131.524 84.145,123.699 91.581,123.699 "/>
<polygon fill="#90C542" points="93.636,131.505 93.636,123.716 95.24,123.716 101.026,130.449 101.026,123.716 102.102,123.716 
	102.102,131.505 100.738,131.505 94.79,124.755 94.79,131.492 "/>
<polygon fill="#90C542" points="104.47,123.699 105.58,123.716 105.58,131.492 104.473,131.492 "/>
<polygon fill="#90C542" points="108.042,131.482 108.042,123.691 109.644,123.691 115.431,130.426 115.431,123.691 116.505,123.691 
	116.505,131.482 115.143,131.482 109.196,124.734 109.196,131.466 "/>
<path fill="#8FC642" d="M128,125.959c0,0-0.841-2.428-4.641-2.428c0,0-5.171,0-5.171,4.087c0,0,0.024,4.089,4.978,4.089
	c0,0,2.381,0.312,3.873-1.66l0.409,1.419h0.626v-4.04h-4.521v0.746h3.511c0,0-0.29,2.548-3.631,2.717c0,0-3.272,0.218-3.968-2.212
	c0,0-0.288-1.947,0.464-2.829c0,0,0.786-1.331,2.213-1.477c0,0,1.442-0.258,2.582,0.018c0,0,1.538,0.222,2.052,1.521L128,125.959z"
	/>
</svg>
