<?xml version="1.0" encoding="utf-8"?>
<!-- Generator: Adobe Illustrator 16.0.3, SVG Export Plug-In . SVG Version: 6.00 Build 0)  -->
<!DOCTYPE svg PUBLIC "-//W3C//DTD SVG 1.1//EN" "http://www.w3.org/Graphics/SVG/1.1/DTD/svg11.dtd">
<svg version="1.1" id="Layer_1" xmlns="http://www.w3.org/2000/svg" xmlns:xlink="http://www.w3.org/1999/xlink" x="0px" y="0px"
	 width="220.027px" height="50.059px" viewBox="0 0 220.027 50.059" enable-background="new 0 0 220.027 50.059"
	 xml:space="preserve">
<g enable-background="new    ">
	<path fill="#42803C" d="M28.164,26.642c-0.959,1.077-2.105,1.862-3.436,2.36c-1.386,0.454-2.904,0.682-4.554,0.682
		c-3.942,0-7.059-1.014-9.348-3.042c-2.345-1.987-3.516-4.719-3.516-8.196c0-3.435,1.145-6.147,3.436-8.134
		c2.397-2.069,5.565-3.104,9.508-3.104c3.408,0,6.232,0.643,8.469,1.925c2.184,1.366,3.488,3.146,3.915,5.34h-3.835
		c-1.119,0-1.945-0.393-2.477-1.18c-0.373-0.497-0.906-0.952-1.598-1.366c-1.066-0.579-2.477-0.869-4.235-0.869
		c-2.291,0-4.102,0.642-5.433,1.925c-1.332,1.366-1.997,3.188-1.997,5.464c0,2.319,0.691,4.14,2.077,5.464
		c1.331,1.284,3.222,1.924,5.673,1.924c1.81,0,3.302-0.392,4.474-1.179c1.171-0.828,1.917-1.965,2.237-3.415h-3.356
		c-0.799,0-1.478-0.217-2.037-0.652c-0.56-0.435-0.839-0.962-0.839-1.583v-1.428h11.426v11.611H31.2
		c-1.492,0-2.425-0.579-2.796-1.738L28.164,26.642z"/>
</g>
<g enable-background="new    ">
	<path fill="#42803C" d="M35.192,29.188v-8.01c0-1.614,0.306-2.97,0.919-4.067c0.612-1.096,1.451-1.976,2.517-2.639
		c1.011-0.621,2.197-1.076,3.556-1.366c1.358-0.289,2.756-0.435,4.194-0.435c0.106,0,0.24,0,0.399,0c0.16,0,0.292,0,0.399,0v4.409
		h-1.837c-1.545,0-2.69,0.29-3.436,0.869c-0.747,0.58-1.119,1.49-1.119,2.732v8.506H35.192z"/>
</g>
<g enable-background="new    ">
	<path fill="#42803C" d="M63.794,24.096h3.995c-0.587,1.738-1.705,3.064-3.355,3.974c-1.652,0.952-3.729,1.428-6.232,1.428
		c-3.036,0-5.407-0.766-7.111-2.297c-1.705-1.49-2.557-3.622-2.557-6.396c0-2.648,0.825-4.719,2.477-6.209
		c1.704-1.531,4.075-2.297,7.111-2.297c3.196,0,5.673,0.745,7.43,2.235c1.704,1.532,2.557,3.664,2.557,6.396c0,0.166,0,0.31,0,0.435
		c0,0.124,0,0.208,0,0.248c0,0.208-0.028,0.353-0.08,0.435H54.206c0.052,1.283,0.452,2.235,1.198,2.856
		c0.692,0.663,1.73,0.993,3.116,0.993c0.905,0,1.678-0.145,2.317-0.435c0.16-0.041,0.306-0.113,0.439-0.217
		c0.132-0.103,0.28-0.217,0.439-0.341c0.053-0.124,0.252-0.289,0.599-0.497C62.661,24.2,63.155,24.096,63.794,24.096z
		 M54.206,19.253h8.149c-0.107-1.118-0.479-1.945-1.119-2.483c-0.693-0.579-1.678-0.869-2.956-0.869
		c-1.172,0-2.131,0.29-2.876,0.869C54.657,17.35,54.258,18.177,54.206,19.253z"/>
</g>
<g enable-background="new    ">
	<path fill="#42803C" d="M85.044,24.096h3.995c-0.587,1.738-1.705,3.064-3.355,3.974c-1.652,0.952-3.729,1.428-6.232,1.428
		c-3.036,0-5.407-0.766-7.111-2.297c-1.705-1.49-2.557-3.622-2.557-6.396c0-2.648,0.825-4.719,2.477-6.209
		c1.704-1.531,4.075-2.297,7.111-2.297c3.196,0,5.673,0.745,7.43,2.235c1.704,1.532,2.557,3.664,2.557,6.396c0,0.166,0,0.31,0,0.435
		c0,0.124,0,0.208,0,0.248c0,0.208-0.028,0.353-0.08,0.435H75.456c0.052,1.283,0.452,2.235,1.198,2.856
		c0.692,0.663,1.73,0.993,3.116,0.993c0.905,0,1.678-0.145,2.317-0.435c0.16-0.041,0.306-0.113,0.439-0.217
		c0.132-0.103,0.28-0.217,0.439-0.341c0.053-0.124,0.252-0.289,0.599-0.497C83.911,24.2,84.405,24.096,85.044,24.096z
		 M75.456,19.253h8.149c-0.107-1.118-0.479-1.945-1.119-2.483c-0.693-0.579-1.678-0.869-2.956-0.869
		c-1.172,0-2.131,0.29-2.876,0.869C75.907,17.35,75.508,18.177,75.456,19.253z"/>
</g>
<g enable-background="new    ">
	<path fill="#42803C" d="M110.051,29.188h-2.796c-0.799,0-1.452-0.195-1.958-0.59c-0.507-0.393-0.759-0.9-0.759-1.521v-8.444
		c0-0.994-0.387-1.717-1.159-2.173c-0.773-0.455-1.638-0.683-2.597-0.683c-0.958,0-1.812,0.228-2.557,0.683
		c-0.747,0.456-1.119,1.18-1.119,2.173v10.555h-5.593v-9.686c0-2.814,0.945-4.698,2.836-5.65c1.89-0.952,3.981-1.469,6.272-1.552
		c2.343,0,4.5,0.477,6.472,1.428c1.97,0.953,2.956,2.877,2.956,5.774V29.188z"/>
</g>
<g enable-background="new    ">
	<path fill="#42803C" d="M132.579,26.642c-0.959,1.077-2.104,1.862-3.436,2.36c-1.386,0.454-2.903,0.682-4.554,0.682
		c-3.943,0-7.059-1.014-9.349-3.042c-2.345-1.987-3.516-4.719-3.516-8.196c0-3.435,1.146-6.147,3.436-8.134
		c2.397-2.069,5.565-3.104,9.508-3.104c3.408,0,6.231,0.643,8.47,1.925c2.184,1.366,3.488,3.146,3.914,5.34h-3.834
		c-1.119,0-1.945-0.393-2.478-1.18c-0.373-0.497-0.906-0.952-1.598-1.366c-1.066-0.579-2.478-0.869-4.235-0.869
		c-2.29,0-4.102,0.642-5.433,1.925c-1.332,1.366-1.997,3.188-1.997,5.464c0,2.319,0.691,4.14,2.077,5.464
		c1.331,1.284,3.222,1.924,5.673,1.924c1.811,0,3.302-0.392,4.475-1.179c1.17-0.828,1.917-1.965,2.236-3.415h-3.355
		c-0.799,0-1.479-0.217-2.037-0.652c-0.56-0.435-0.84-0.962-0.84-1.583v-1.428h11.426v11.611h-1.518
		c-1.492,0-2.425-0.579-2.797-1.738L132.579,26.642z"/>
</g>
<g enable-background="new    ">
	<path fill="#42803C" d="M142.244,27.698c-1.119-0.745-1.918-1.748-2.396-3.011c-0.48-1.262-0.72-2.577-0.72-3.943
		c0-1.118,0.2-2.235,0.599-3.353c0.4-1.118,1.025-2.049,1.879-2.794c1.384-1.242,3.168-1.976,5.353-2.204
		c2.184-0.227,4.155-0.093,5.913,0.404c2.023,0.621,3.515,1.698,4.474,3.229c0.905,1.366,1.358,2.96,1.358,4.781
		c0,1.325-0.188,2.463-0.56,3.415c-0.373,0.953-0.853,1.76-1.438,2.421c-1.277,1.366-2.903,2.215-4.873,2.546
		c-1.758,0.373-3.529,0.404-5.313,0.094C144.733,28.971,143.308,28.443,142.244,27.698z M146.079,16.77
		c-1.118,0.953-1.626,2.37-1.519,4.253c0.106,1.884,0.56,3.198,1.359,3.943c0.318,0.332,0.879,0.611,1.678,0.838
		s1.609,0.248,2.437,0.062c0.825-0.186,1.558-0.651,2.197-1.396s0.985-1.945,1.038-3.601c0-1.49-0.307-2.608-0.918-3.353
		c-0.613-0.745-1.318-1.221-2.117-1.428c-0.8-0.207-1.599-0.217-2.397-0.031C147.038,16.242,146.451,16.481,146.079,16.77z"/>
</g>
<path fill="#90C543" d="M78.543,35.902c0,0-0.871-2.515-4.802-2.515c0,0-5.351,0-5.351,4.231c0,0,0.023,4.229,5.15,4.229
	c0,0,2.463,0.323,4.006-1.717l0.425,1.468h0.646v-4.18h-4.679v0.771h3.634c0,0-0.299,2.639-3.759,2.812c0,0-3.384,0.225-4.106-2.29
	c0,0-0.298-2.017,0.481-2.928c0,0,0.812-1.376,2.291-1.526c0,0,1.492-0.266,2.67,0.017c0,0,1.593,0.232,2.124,1.577L78.543,35.902z"
	/>
<g>
	<polygon fill="#FFFFFF" points="79.447,41.592 79.457,41.592 83.746,33.58 	"/>
	<polygon fill="#90C543" points="85.42,33.58 89.667,41.576 88.44,41.576 87.196,39.319 88.44,41.676 89.743,41.676 	"/>
	<polygon fill="#90C543" points="79.457,41.592 79.439,41.625 80.741,41.629 82.069,39.319 80.741,41.608 	"/>
	<path fill="#90C543" d="M89.667,41.576L85.42,33.58h-1.675l-4.289,8.012l1.285,0.017l1.328-2.29h5.126l1.244,2.258H89.667z
		 M82.467,38.391l2.107-3.783l2.074,3.783H82.467z"/>
</g>
<g>
	<path fill="#90C543" d="M99.208,41.459c-0.266-0.083-0.349-0.764-0.349-0.764v-1.792c0-0.896-1.478-0.994-1.478-0.994l0.199-0.093
		c1.717-0.721,1.469-1.99,1.469-1.99c-0.175-2.016-2.837-2.239-2.837-2.239h-5.524v8.038h1.244V38.24h4.33l0.439,0.017
		c0.979,0.116,0.879,1.095,0.879,1.095s0.018,1.312,0.018,1.774c0,0.465,0.397,0.498,0.397,0.498s1.26,0,1.343,0
		S99.472,41.542,99.208,41.459z M96.088,37.345h-4.131v-2.911v-0.001h4.131c0,0,1.692,0.299,1.742,1.52
		C97.88,37.17,96.088,37.345,96.088,37.345z"/>
</g>
<g>
	<path fill="#90C543" d="M106.06,33.562h-5.145v8.063l5.209,0.033c0,0,4.247-0.332,4.247-4.081
		C110.373,33.828,106.06,33.562,106.06,33.562z M105.628,40.729c-2.895,0-3.41,0.02-3.483,0.028v0.006c0,0-0.024-0.002,0-0.006
		v-6.365h3.483c0,0,3.484,0.166,3.484,3.02C109.112,37.411,109.51,40.729,105.628,40.729z"/>
	<path fill="#FFFFFF" d="M102.144,40.763v-0.006C102.119,40.761,102.144,40.763,102.144,40.763z"/>
</g>
<polygon fill="#90C543" points="119.697,34.425 113.16,34.425 113.16,36.98 119.333,36.98 119.333,37.809 113.16,37.809 
	113.16,40.829 120.129,40.829 120.129,41.659 112,41.659 112,33.562 119.693,33.562 "/>
<polygon fill="#91C543" points="121.821,41.642 121.821,33.578 123.48,33.578 129.469,40.546 129.469,33.578 130.581,33.578 
	130.581,41.642 129.171,41.642 123.016,34.657 123.016,41.625 "/>
<polygon fill="#91C543" points="133.032,33.562 134.182,33.578 134.182,41.625 133.036,41.625 "/>
<polygon fill="#91C543" points="136.729,41.616 136.729,33.554 138.387,33.554 144.376,40.522 144.376,33.554 145.488,33.554 
	145.488,41.616 144.078,41.616 137.923,34.633 137.923,41.6 "/>
<path fill="#90C543" d="M157.384,35.902c0,0-0.871-2.515-4.803-2.515c0,0-5.351,0-5.351,4.231c0,0,0.023,4.229,5.15,4.229
	c0,0,2.465,0.323,4.008-1.717l0.423,1.468h0.646v-4.18h-4.678v0.771h3.633c0,0-0.298,2.639-3.757,2.812c0,0-3.386,0.225-4.106-2.29
	c0,0-0.299-2.017,0.481-2.928c0,0,0.812-1.376,2.289-1.526c0,0,1.494-0.266,2.671,0.017c0,0,1.593,0.232,2.125,1.577L157.384,35.902
	z"/>
<path fill="#42803C" d="M47.177,12.676c0,0,2.499,0.163,2.678,0.383c0.149,0.188-0.098,0.422-0.098,0.422
	c-2.091,1.095-2.58,3.588-2.58,3.588h-0.125v-4.394"/>
</svg>
