<?xml version="1.0" encoding="utf-8"?>
<!-- Generator: Adobe Illustrator 16.0.3, SVG Export Plug-In . SVG Version: 6.00 Build 0)  -->
<!DOCTYPE svg PUBLIC "-//W3C//DTD SVG 1.1//EN" "http://www.w3.org/Graphics/SVG/1.1/DTD/svg11.dtd">
<svg version="1.1" id="Layer_1" xmlns="http://www.w3.org/2000/svg" xmlns:xlink="http://www.w3.org/1999/xlink" x="0px" y="0px"
	 width="478.638px" height="108.896px" viewBox="0 0 478.638 108.896" enable-background="new 0 0 478.638 108.896"
	 xml:space="preserve">
<text transform="matrix(1.2868 0 0 1 34.0591 67.5352)"><tspan x="0" y="0" fill="#42803C" font-family="'Harabara'" font-size="82.6936">G</tspan><tspan x="52.814" y="0" fill="#42803C" font-family="'Harabara'" font-size="11.4852"> </tspan><tspan x="55.394" y="0" fill="#42803C" font-family="'Harabara'" font-size="82.6936">r</tspan><tspan x="80.751" y="0" fill="#42803C" font-family="'Harabara'" font-size="11.4852"> </tspan><tspan x="83.331" y="0" fill="#42803C" font-family="'Harabara'" font-size="82.6936">e</tspan><tspan x="123.708" y="0" fill="#42803C" font-family="'Harabara'" font-size="11.4852"> </tspan><tspan x="126.288" y="0" fill="#42803C" font-family="'Harabara'" font-size="82.6936">e</tspan><tspan x="166.666" y="0" fill="#42803C" font-family="'Harabara'" font-size="11.4852"> </tspan><tspan x="169.245" y="0" fill="#42803C" font-family="'Harabara'" font-size="82.6936">n</tspan><tspan x="208.493" y="0" fill="#42803C" font-family="'Harabara'" font-size="11.4852"> </tspan><tspan x="211.072" y="0" fill="#42803C" font-family="'Harabara'" font-size="82.6936">G</tspan><tspan x="263.886" y="0" fill="#42803C" font-family="'Harabara'" font-size="11.4852"> </tspan><tspan x="266.466" y="0" fill="#42803C" font-family="'Harabara'" font-size="82.6936">o</tspan></text>
<path fill="#90C543" d="M218.105,85c0,0-2.265-6.541-12.491-6.541c0,0-13.919,0-13.919,11.006c0,0,0.064,11.004,13.399,11.004
	c0,0,6.408,0.84,10.42-4.469l1.103,3.82h1.683V88.947h-12.171v2.004h9.454c0,0-0.779,6.863-9.777,7.316
	c0,0-8.803,0.584-10.682-5.957c0,0-0.775-5.244,1.253-7.617c0,0,2.113-3.582,5.958-3.971c0,0,3.88-0.691,6.946,0.045
	c0,0,4.143,0.605,5.524,4.102L218.105,85z"/>
<g>
	<polygon fill="#FFFFFF" points="220.457,99.801 220.481,99.801 231.638,78.959 	"/>
	<polygon fill="#90C543" points="235.995,78.959 247.042,99.76 243.85,99.76 240.613,93.889 243.85,100.02 247.238,100.02 	"/>
	<polygon fill="#90C543" points="220.481,99.801 220.436,99.889 223.823,99.898 227.278,93.889 223.823,99.846 	"/>
	<path fill="#90C543" d="M247.042,99.76l-11.048-20.801h-4.356l-11.157,20.842l3.341,0.045l3.455-5.957h13.335l3.236,5.871H247.042z
		 M228.313,91.473l5.48-9.84l5.396,9.84H228.313z"/>
</g>
<g>
	<path fill="#90C543" d="M271.86,99.457c-0.693-0.217-0.908-1.984-0.908-1.984v-4.662c0-2.332-3.841-2.588-3.841-2.588l0.519-0.24
		c4.466-1.875,3.82-5.178,3.82-5.178c-0.455-5.24-7.38-5.824-7.38-5.824h-14.372v20.908h3.236v-8.807h11.263l1.145,0.045
		c2.546,0.305,2.288,2.85,2.288,2.85s0.044,3.408,0.044,4.615c0,1.209,1.036,1.295,1.036,1.295s3.278,0,3.495,0
		C272.418,99.887,272.547,99.672,271.86,99.457z M263.745,88.752h-10.747v-7.57V81.18h10.747c0,0,4.401,0.777,4.531,3.951
		C268.404,88.299,263.745,88.752,263.745,88.752z"/>
</g>
<g>
	<path fill="#90C543" d="M289.684,78.914h-13.38v20.975l13.551,0.086c0,0,11.048-0.865,11.048-10.617S289.684,78.914,289.684,78.914
		z M288.56,97.557c-7.53,0-8.868,0.051-9.063,0.074v0.014c0,0-0.064-0.004,0-0.014V81.072h9.063c0,0,9.062,0.432,9.062,7.854
		C297.622,88.926,298.657,97.557,288.56,97.557z"/>
	<path fill="#FFFFFF" d="M279.496,97.645v-0.014C279.432,97.641,279.496,97.645,279.496,97.645z"/>
</g>
<polygon fill="#90C543" points="325.158,81.158 308.151,81.158 308.151,87.805 324.208,87.805 324.208,89.961 308.151,89.961 
	308.151,97.816 326.279,97.816 326.279,99.975 305.134,99.975 305.134,78.914 325.146,78.914 "/>
<polygon fill="#91C543" points="330.683,99.932 330.683,78.955 334.998,78.955 350.576,97.082 350.576,78.955 353.469,78.955 
	353.469,99.932 349.802,99.932 333.79,81.762 333.79,99.889 "/>
<polygon fill="#91C543" points="359.844,78.914 362.834,78.955 362.834,99.889 359.854,99.889 "/>
<polygon fill="#91C543" points="369.461,99.863 369.461,78.893 373.774,78.893 389.354,97.02 389.354,78.893 392.245,78.893 
	392.245,99.863 388.577,99.863 372.568,81.699 372.568,99.822 "/>
<path fill="#90C543" d="M423.19,85c0,0-2.268-6.541-12.495-6.541c0,0-13.919,0-13.919,11.006c0,0,0.064,11.004,13.398,11.004
	c0,0,6.41,0.84,10.424-4.469l1.1,3.82h1.683V88.947h-12.17v2.004h9.451c0,0-0.775,6.863-9.773,7.316c0,0-8.807,0.584-10.682-5.957
	c0,0-0.777-5.244,1.25-7.617c0,0,2.116-3.582,5.955-3.971c0,0,3.886-0.691,6.949,0.045c0,0,4.143,0.605,5.526,4.102L423.19,85z"/>
<path fill="#42803C" d="M136.516,24.585c0,0,6.5,0.422,6.963,0.997c0.391,0.489-0.252,1.099-0.252,1.099
	c-5.44,2.845-6.711,9.333-6.711,9.333h-0.325V24.585"/>
</svg>
