<?xml version="1.0" encoding="utf-8"?>
<!-- Generator: Adobe Illustrator 16.0.3, SVG Export Plug-In . SVG Version: 6.00 Build 0)  -->
<!DOCTYPE svg PUBLIC "-//W3C//DTD SVG 1.1//EN" "http://www.w3.org/Graphics/SVG/1.1/DTD/svg11.dtd">
<svg version="1.1" id="Layer_1" xmlns="http://www.w3.org/2000/svg" xmlns:xlink="http://www.w3.org/1999/xlink" x="0px" y="0px"
	 width="350px" height="150px" viewBox="0 0 350 150" enable-background="new 0 0 350 150" xml:space="preserve">
<path fill="#417F24" d="M102.52,83.641V50.804c0,0,0-18.104,29.642-19.791l13.023-0.199c0,0,2.463,0.266,0.1,2.196
	c-2.362,1.93-6.756,6.656-7.454,11.283c0,0-0.033,0.266-0.5,0.499c-0.467,0.234-5.624,0.1-5.624,0.1s-9.019-0.432-11.016,6.956
	c0,0-0.466,5.391-0.466,7.321c0,1.93,0,24.429,0,24.429L102.52,83.641z"/>
<g>
	<path fill="#417F24" d="M67.176,58.215h10.916l-0.266,0.532l-9.519,10.051c0,0-1.997,2.662-6.922,4.06
		c-4.926,1.399-10.783,1.132-10.783,1.132c-10.05,0-15.458-4.143-15.458-4.143C24.627,63.99,26.042,50.56,26.042,50.56
		c0-14.309,6.9-18.658,6.9-18.658c6.211-6.745,21.188-5.968,21.188-5.968c12.713-0.067,17.306,7.188,17.306,7.188
		c3.128,3.194,4.459,3.128,4.459,3.128h19.878c-2.13-8.875-10.561-14.732-10.561-14.732c-9.229-8.431-30.972-8.255-30.972-8.255
		c-21.476-1.065-33.634,9.142-33.634,9.142C8.093,31.191,8.802,52.934,8.802,52.934c0.355,16.418,14.821,26.802,14.821,26.802
		l-0.179,0.666c-1.331,0.355-3.548,2.084-3.548,2.084s-7.988,5.947-10.65,12.426c-2.663,6.479-1.598,16.773-1.598,16.773
		c3.638,21.033,23.429,25.205,23.429,25.205c6.212,2.662,24.405,1.953,24.405,1.953c30.796-1.598,32.992-25.716,32.992-25.716
		c0.532-3.528,0.133-11.448,0.133-11.448C87.21,85.904,72.633,81.244,72.633,81.244l-0.299-0.83l12.081-12.083v5.724
		c0,10.384,5.325,10.118,5.325,10.118h4.992V47.432H57.525C57.525,58.414,67.176,58.215,67.176,58.215z M73.056,106.624
		c0,0,0,10.385-5.059,14.466c0,0-4.083,7.544-19.436,7.544c0,0-12.336,1.021-18.193-6.168c0,0.001-5.258-5.323-5.192-16.306
		c0,0-0.932-11.338,9.052-16.797c0,0,5.192-2.973,14.644-2.973c0,0,13.001-0.754,18.016,5.369
		C66.888,91.76,73.056,96.82,73.056,106.624z"/>
</g>
<g>
	<path fill="#417F24" d="M209.018,59.856c0,0,3.193-32.126-31.506-30.973c0,0-33.281-1.953-33.281,26.979
		c0,0-2.707,28.399,32.97,28.399c0,0,24.628,0.666,30.884-16.906H193.84c0,0-1.064-0.134-2.04,0.621c0,0-5.458,5.946-14.065,5.946
		c-0.002,0-16.243,1.243-15.399-14.066H209.018z M176.535,40.642c13.046,0,13.578,10.028,13.578,10.028h-27.6
		C162.513,50.67,163.489,40.642,176.535,40.642z"/>
</g>
<g>
	<path fill="#417F24" d="M277.706,60.521c0,0,3.194-32.126-31.506-30.973c0,0-33.28-1.953-33.28,26.979c0,0-2.706,28.4,32.971,28.4
		c0,0,24.627,0.665,30.885-16.907h-14.246c0,0-1.064-0.134-2.04,0.621c0,0-5.457,5.946-14.066,5.946c0,0-16.241,1.244-15.397-14.066
		H277.706z M245.225,41.309c13.047,0,13.578,10.027,13.578,10.027h-27.601C231.202,51.336,232.178,41.309,245.225,41.309z"/>
</g>
<path fill="#417F24" d="M281.833,83.662V47.72c0,0,0.933-18.171,31.018-18.171c0,0,31.55-1.73,31.55,22.764v31.283H332.02
	c0,0-5.79-0.531-5.79-4.125c0-3.595,0-29.73,0-29.73s0.11-9.229-12.401-9.229c-12.514,0-13.225,7.099-13.225,7.099v35.143
	c0,0,0.312,0.845-0.844,0.845C298.605,83.598,281.833,83.662,281.833,83.662z"/>
<path fill="#8FC642" d="M130.275,103.031c0,0-2.33-6.723-12.846-6.723c0,0-14.311,0-14.311,11.314c0,0,0.067,11.314,13.778,11.314
	c0,0,6.589,0.865,10.716-4.592l1.131,3.928h1.731V107.09H117.96v2.062h9.718c0,0-0.799,7.056-10.051,7.521
	c0,0-9.053,0.6-10.982-6.124c0,0-0.799-5.391,1.287-7.832c0,0,2.174-3.682,6.124-4.081c0,0,3.993-0.712,7.144,0.043
	c0,0,4.26,0.622,5.68,4.217L130.275,103.031z"/>
<g>
	<polygon fill="#FFFFFF" points="132.693,118.252 132.718,118.252 144.187,96.82 	"/>
	<polygon fill="#8FC642" points="148.668,96.82 160.028,118.207 156.745,118.207 153.416,112.172 156.745,118.475 160.228,118.475 	
		"/>
	<polygon fill="#8FC642" points="132.718,118.252 132.671,118.341 136.154,118.352 139.705,112.172 136.155,118.296 	"/>
	<path fill="#8FC642" d="M160.028,118.207l-11.36-21.387h-4.481l-11.469,21.432l3.437,0.044l3.55-6.124h13.711l3.329,6.035H160.028z
		 M140.77,109.688l5.634-10.117l5.548,10.117H140.77z"/>
</g>
<g>
	<path fill="#8FC642" d="M185.543,117.896c-0.71-0.222-0.932-2.041-0.932-2.041v-4.793c0-2.396-3.95-2.662-3.95-2.662l0.532-0.244
		c4.594-1.93,3.928-5.324,3.928-5.324c-0.467-5.391-7.588-5.99-7.588-5.99h-14.776v21.499h3.328v-9.054h11.581l1.175,0.044
		c2.618,0.312,2.353,2.929,2.353,2.929s0.045,3.506,0.045,4.748s1.064,1.331,1.064,1.331s3.372,0,3.594,0
		C186.119,118.339,186.252,118.118,185.543,117.896z M177.2,106.893h-11.049v-7.787v-0.002H177.2c0,0,4.526,0.799,4.659,4.06
		C181.992,106.425,177.2,106.893,177.2,106.893z"/>
</g>
<g>
	<path fill="#8FC642" d="M203.869,96.775h-13.756v21.565l13.934,0.087c0,0,11.359-0.887,11.359-10.914
		C215.406,97.484,203.869,96.775,203.869,96.775z M202.715,115.943c-7.742,0-9.119,0.05-9.318,0.075v0.015c0,0-0.068-0.006,0-0.015
		V98.993h9.318c0,0,9.318,0.444,9.318,8.075C212.033,107.068,213.098,115.943,202.715,115.943z"/>
	<path fill="#FFFFFF" d="M193.396,116.033v-0.015C193.328,116.027,193.396,116.033,193.396,116.033z"/>
</g>
<polygon fill="#8FC642" points="240.344,99.082 222.859,99.082 222.859,105.916 239.368,105.916 239.368,108.133 222.859,108.133 
	222.859,116.21 241.498,116.21 241.498,118.43 219.755,118.43 219.755,96.773 240.332,96.775 "/>
<polygon fill="#90C542" points="246.023,118.384 246.023,96.818 250.461,96.818 266.479,115.455 266.479,96.818 269.453,96.818 
	269.453,118.384 265.682,118.384 249.219,99.703 249.219,118.34 "/>
<polygon fill="#90C542" points="276.008,96.775 279.082,96.818 279.082,118.34 276.02,118.34 "/>
<polygon fill="#90C542" points="285.895,118.316 285.895,96.752 290.331,96.752 306.35,115.389 306.35,96.752 309.322,96.752 
	309.322,118.316 305.551,118.316 289.089,99.637 289.089,118.273 "/>
<path fill="#8FC642" d="M341.138,103.031c0,0-2.329-6.723-12.845-6.723c0,0-14.312,0-14.312,11.314c0,0,0.066,11.314,13.777,11.314
	c0,0,6.589,0.865,10.716-4.592l1.133,3.928h1.729V107.09h-12.514v2.062h9.718c0,0-0.798,7.056-10.05,7.521
	c0,0-9.054,0.6-10.982-6.124c0,0-0.799-5.391,1.287-7.832c0,0,2.174-3.682,6.123-4.081c0,0,3.993-0.712,7.145,0.043
	c0,0,4.26,0.622,5.681,4.217L341.138,103.031z"/>
</svg>
